<!--
  - (c) Copyright 2025 Palantir Technologies Inc. All rights reserved.
  - Licensed under the Apache License, Version 2.0 (the "License");
  - you may not use this file except in compliance with the License.
  - You may obtain a copy of the License at
  -
  -     http://www.apache.org/licenses/LICENSE-2.0
  -
  - Unless required by applicable law or agreed to in writing, software
  - distributed under the License is distributed on an "AS IS" BASIS,
  - WITHOUT WARRANTIES OR CONDITIONS OF ANY KIND, either express or implied.
  - See the License for the specific language governing permissions and
  - limitations under the License.
  -->

<svg version="1.1" xmlns="http://www.w3.org/2000/svg" viewBox="0 0 1171.3144973133483 776.3164062499998" width="2342.6289946266966" height="1552.6328124999995">
  <!-- svg-source:excalidraw -->
  
  <defs>
    <style>
      @font-face {
        font-family: "Virgil";
        src: url("https://excalidraw.com/Virgil.woff2");
      }
      @font-face {
        font-family: "Cascadia";
        src: url("https://excalidraw.com/Cascadia.woff2");
      }
    </style>
  </defs>
  <rect x="0" y="0" width="1171.3144973133483" height="776.3164062499998" fill="#ffffff"></rect><g stroke-linecap="round" transform="translate(938.0957473133483 52.46484375) rotate(0 111.609375 356.9257812499999)"><path d="M55.8 0 M55.8 0 C87 -0.55, 116.54 -0.4, 167.41 0 M167.41 0 C206.21 -0.44, 224.27 17.07, 223.22 55.8 M223.22 55.8 C224.34 287.52, 223.92 520.02, 223.22 658.05 M223.22 658.05 C223.42 694.89, 203.41 712.78, 167.41 713.85 M167.41 713.85 C122.67 713.68, 80.39 714.96, 55.8 713.85 M55.8 713.85 C17.15 715.24, -1.79 693.58, 0 658.05 M0 658.05 C-2.3 478.17, -2.54 299.7, 0 55.8 M0 55.8 C-1.35 20.45, 19.49 1.02, 55.8 0" stroke="#000000" stroke-width="1.5" fill="none" stroke-dasharray="8 9"></path></g><g transform="translate(944.0856370192307 10) rotate(0 105.5 12.5)"><text x="105.5" y="18" font-family="Virgil, Segoe UI Emoji" font-size="20px" fill="#000000" text-anchor="middle" style="white-space: pre;" direction="ltr">All Runtime Artifacts</text></g><g stroke-linecap="round" transform="translate(954.9785598133483 324.80805969238276) rotate(0 94.7265625 121.18339538574216)"><path d="M47.36 0 L142.09 0 L153.19 0.74 L162.81 2.96 L170.95 6.66 L177.61 11.84 L180.39 14.99 L184.83 22.39 L187.79 31.27 L189.45 47.36 L189.27 200.74 L187.79 211.1 L182.79 223.87 L177.61 230.53 L174.47 233.3 L167.07 237.74 L158.19 240.7 L142.09 242.37 L47.36 242.37 L36.26 241.63 L26.64 239.41 L18.5 235.71 L11.84 230.53 L6.66 223.87 L4.63 219.98 L1.67 211.1 L0 195 L0 47.36 L1.67 31.27 L6.66 18.5 L9.07 14.99 L14.99 9.07 L22.39 4.63 L31.27 1.67 L47.36 0" stroke="none" stroke-width="0" fill="#fff"></path><path d="M47.36 0 M47.36 0 C70.98 0, 94.59 0, 142.09 0 M47.36 0 C67.71 0, 88.05 0, 142.09 0 M142.09 0 C173.67 0, 189.45 15.79, 189.45 47.36 M142.09 0 C173.67 0, 189.45 15.79, 189.45 47.36 M189.45 47.36 C189.45 104.74, 189.45 162.13, 189.45 195 M189.45 47.36 C189.45 84.36, 189.45 121.36, 189.45 195 M189.45 195 C189.45 226.58, 173.67 242.37, 142.09 242.37 M189.45 195 C189.45 226.58, 173.67 242.37, 142.09 242.37 M142.09 242.37 C119.37 242.37, 96.64 242.37, 47.36 242.37 M142.09 242.37 C120.18 242.37, 98.27 242.37, 47.36 242.37 M47.36 242.37 C15.79 242.37, 0 226.58, 0 195 M47.36 242.37 C15.79 242.37, 0 226.58, 0 195 M0 195 C0 162.51, 0 130.01, 0 47.36 M0 195 C0 149.89, 0 104.78, 0 47.36 M0 47.36 C0 15.79, 15.79 0, 47.36 0 M0 47.36 C0 15.79, 15.79 0, 47.36 0" stroke="#000000" stroke-width="1" fill="none"></path></g><g stroke-linecap="round"><g transform="translate(1069.0879348133483 421.90962219238276) rotate(0 30 40.00000000000003)" fill-rule="evenodd"><path d="M0 0 L40 0 L60 20 L60 80 L0 80 L0 0" stroke="none" stroke-width="0" fill="#fff" fill-rule="evenodd"></path><path d="M0 0 C8.82 0, 17.63 0, 40 0 M0 0 C9.49 0, 18.98 0, 40 0 M40 0 C44.77 4.77, 49.54 9.54, 60 20 M40 0 C45.81 5.81, 51.63 11.63, 60 20 M60 20 C60 37.29, 60 54.57, 60 80 M60 20 C60 36.9, 60 53.8, 60 80 M60 80 C37.54 80, 15.08 80, 0 80 M60 80 C46.77 80, 33.53 80, 0 80 M0 80 C0 52.53, 0 25.06, 0 0 M0 80 C0 49.43, 0 18.86, 0 0 M0 0 C0 0, 0 0, 0 0 M0 0 C0 0, 0 0, 0 0" stroke="#c92a2a" stroke-width="1" fill="none"></path></g></g><g stroke-linecap="round"><g transform="translate(1109.0879348133483 421.90962219238276) rotate(0 0 10)"><path d="M0 0 C0 4.9, 0 9.8, 0 20 M0 0 C0 4.61, 0 9.21, 0 20" stroke="#c92a2a" stroke-width="1" fill="none"></path></g></g><g stroke-linecap="round"><g transform="translate(1109.0879348133483 441.90962219238276) rotate(0 10 0)"><path d="M0 0 C5.28 0, 10.56 0, 20 0 M0 0 C4.14 0, 8.28 0, 20 0" stroke="#c92a2a" stroke-width="1" fill="none"></path></g></g><g stroke-linecap="round" transform="translate(1069.0879348133483 421.7716013590495) rotate(0 30 40)"><path d="M0 0 C18.54 0, 37.07 0, 60 0 M0 0 C20.16 0, 40.32 0, 60 0 M60 0 C60 24.1, 60 48.2, 60 80 M60 0 C60 26.71, 60 53.42, 60 80 M60 80 C45.68 80, 31.35 80, 0 80 M60 80 C47.04 80, 34.08 80, 0 80 M0 80 C0 57.33, 0 34.66, 0 0 M0 80 C0 51.82, 0 23.63, 0 0" stroke="transparent" stroke-width="1" fill="none"></path></g><g transform="translate(1073.4082473133483 460.00337219238276) rotate(0 27 10)"><text x="0" y="14" font-family="Virgil, Segoe UI Emoji" font-size="16px" fill="#c92a2a" text-anchor="start" style="white-space: pre;" direction="ltr">*.class</text></g><g stroke-linecap="round"><g transform="translate(996.8418410633483 467.81196594238276) rotate(0 30 40.00000000000003)" fill-rule="evenodd"><path d="M0 0 L40 0 L60 20 L60 80 L0 80 L0 0" stroke="none" stroke-width="0" fill="#fff" fill-rule="evenodd"></path><path d="M0 0 C14.77 0, 29.55 0, 40 0 M0 0 C15.71 0, 31.41 0, 40 0 M40 0 C45.11 5.11, 50.22 10.22, 60 20 M40 0 C44.78 4.78, 49.56 9.56, 60 20 M60 20 C60 35.13, 60 50.25, 60 80 M60 20 C60 33.48, 60 46.96, 60 80 M60 80 C47.11 80, 34.23 80, 0 80 M60 80 C47.55 80, 35.11 80, 0 80 M0 80 C0 59.95, 0 39.91, 0 0 M0 80 C0 49.05, 0 18.1, 0 0 M0 0 C0 0, 0 0, 0 0 M0 0 C0 0, 0 0, 0 0" stroke="#000000" stroke-width="1" fill="none"></path></g></g><g stroke-linecap="round"><g transform="translate(1036.8418410633483 467.81196594238276) rotate(0 0 10)"><path d="M0 0 C0 4.21, 0 8.41, 0 20 M0 0 C0 6.89, 0 13.78, 0 20" stroke="#000000" stroke-width="1" fill="none"></path></g></g><g stroke-linecap="round"><g transform="translate(1036.8418410633483 487.81196594238264) rotate(0 10 0)"><path d="M0 0 C4.33 0, 8.67 0, 20 0 M0 0 C7.02 0, 14.03 0, 20 0" stroke="#000000" stroke-width="1" fill="none"></path></g></g><g stroke-linecap="round" transform="translate(996.8418410633483 467.81196594238276) rotate(0 30 39.99999999999997)"><path d="M0 0 C17.87 0, 35.73 0, 60 0 M0 0 C23.74 0, 47.48 0, 60 0 M60 0 C60 28.71, 60 57.43, 60 80 M60 0 C60 20.71, 60 41.43, 60 80 M60 80 C36.22 80, 12.45 80, 0 80 M60 80 C40 80, 20 80, 0 80 M0 80 C0 60.72, 0 41.44, 0 0 M0 80 C0 57.79, 0 35.58, 0 0" stroke="transparent" stroke-width="1" fill="none"></path></g><g transform="translate(1001.1621535633483 505.9057159423825) rotate(0 27 10)"><text x="0" y="14" font-family="Virgil, Segoe UI Emoji" font-size="16px" fill="#000000" text-anchor="start" style="white-space: pre;" direction="ltr">*.class</text></g><g transform="translate(962.9629348133483 344.63618469238276) rotate(0 85.5 10)"><text x="85.5" y="14" font-family="Virgil, Segoe UI Emoji" font-size="16px" fill="#000000" text-anchor="middle" style="white-space: pre;" direction="ltr">Dependency "Artifact"</text></g><g stroke-linecap="round"><g transform="translate(976.9689797794117 371.1468100799514) rotate(0 30 40.00000000000003)" fill-rule="evenodd"><path d="M0 0 L40 0 L60 20 L60 80 L0 80 L0 0" stroke="none" stroke-width="0" fill="#fff" fill-rule="evenodd"></path><path d="M0 0 C11.69 0, 23.38 0, 40 0 M0 0 C9.64 0, 19.27 0, 40 0 M40 0 C45.97 5.97, 51.93 11.93, 60 20 M40 0 C45.67 5.67, 51.33 11.33, 60 20 M60 20 C60 35.1, 60 50.2, 60 80 M60 20 C60 43.45, 60 66.89, 60 80 M60 80 C43.03 80, 26.07 80, 0 80 M60 80 C39.23 80, 18.47 80, 0 80 M0 80 C0 50.1, 0 20.2, 0 0 M0 80 C0 58.09, 0 36.18, 0 0 M0 0 C0 0, 0 0, 0 0 M0 0 C0 0, 0 0, 0 0" stroke="#c92a2a" stroke-width="1" fill="none"></path></g></g><g stroke-linecap="round"><g transform="translate(1016.9689797794117 371.1468100799514) rotate(0 0 10)"><path d="M0 0 C0 4.29, 0 8.57, 0 20 M0 0 C0 7.06, 0 14.13, 0 20" stroke="#c92a2a" stroke-width="1" fill="none"></path></g></g><g stroke-linecap="round"><g transform="translate(1016.9689797794117 391.1468100799514) rotate(0 10 0)"><path d="M0 0 C7.55 0, 15.11 0, 20 0 M0 0 C5.18 0, 10.36 0, 20 0" stroke="#c92a2a" stroke-width="1" fill="none"></path></g></g><g stroke-linecap="round" transform="translate(976.9689797794117 371.00878924661816) rotate(0 30 40)"><path d="M0 0 C19.6 0, 39.19 0, 60 0 M0 0 C12.01 0, 24.02 0, 60 0 M60 0 C60 25.95, 60 51.91, 60 80 M60 0 C60 18.36, 60 36.72, 60 80 M60 80 C40.55 80, 21.1 80, 0 80 M60 80 C43.1 80, 26.2 80, 0 80 M0 80 C0 57.43, 0 34.86, 0 0 M0 80 C0 56.76, 0 33.52, 0 0" stroke="transparent" stroke-width="1" fill="none"></path></g><g transform="translate(981.2892922794117 409.2405600799514) rotate(0 27 10)"><text x="0" y="14" font-family="Virgil, Segoe UI Emoji" font-size="16px" fill="#c92a2a" text-anchor="start" style="white-space: pre;" direction="ltr">*.class</text></g><g stroke-linecap="round" transform="translate(954.8590745192307 64.971923828125) rotate(0 94.7265625 121.18339538574216)"><path d="M47.36 0 L142.09 0 L153.19 0.74 L162.81 2.96 L170.95 6.66 L177.61 11.84 L180.39 14.99 L184.83 22.39 L187.79 31.27 L189.45 47.36 L189.27 200.74 L187.79 211.1 L182.79 223.87 L177.61 230.53 L174.47 233.3 L167.07 237.74 L158.19 240.7 L142.09 242.37 L47.36 242.37 L36.26 241.63 L26.64 239.41 L18.5 235.71 L11.84 230.53 L6.66 223.87 L4.63 219.98 L1.67 211.1 L0 195 L0 47.36 L1.67 31.27 L6.66 18.5 L9.07 14.99 L14.99 9.07 L22.39 4.63 L31.27 1.67 L47.36 0" stroke="none" stroke-width="0" fill="#fff"></path><path d="M47.36 0 M47.36 0 C69.98 0, 92.59 0, 142.09 0 M47.36 0 C79.9 0, 112.43 0, 142.09 0 M142.09 0 C173.67 0, 189.45 15.79, 189.45 47.36 M142.09 0 C173.67 0, 189.45 15.79, 189.45 47.36 M189.45 47.36 C189.45 89.2, 189.45 131.04, 189.45 195 M189.45 47.36 C189.45 78.07, 189.45 108.78, 189.45 195 M189.45 195 C189.45 226.58, 173.67 242.37, 142.09 242.37 M189.45 195 C189.45 226.58, 173.67 242.37, 142.09 242.37 M142.09 242.37 C112.58 242.37, 83.08 242.37, 47.36 242.37 M142.09 242.37 C113.17 242.37, 84.26 242.37, 47.36 242.37 M47.36 242.37 C15.79 242.37, 0 226.58, 0 195 M47.36 242.37 C15.79 242.37, 0 226.58, 0 195 M0 195 C0 161.57, 0 128.14, 0 47.36 M0 195 C0 137.72, 0 80.44, 0 47.36 M0 47.36 C0 15.79, 15.79 0, 47.36 0 M0 47.36 C0 15.79, 15.79 0, 47.36 0" stroke="#000000" stroke-width="1" fill="none"></path></g><g transform="translate(962.8434495192307 84.800048828125) rotate(0 85.5 10)"><text x="85.5" y="14" font-family="Virgil, Segoe UI Emoji" font-size="16px" fill="#000000" text-anchor="middle" style="white-space: pre;" direction="ltr">Dependency "Artifact"</text></g><g stroke-linecap="round"><g transform="translate(1000.9455422794119 215.46191424661814) rotate(0 30 40.000000000000014)" fill-rule="evenodd"><path d="M0 0 L40 0 L60 20 L60 80 L0 80 L0 0" stroke="none" stroke-width="0" fill="#fff" fill-rule="evenodd"></path><path d="M0 0 C15.37 0, 30.74 0, 40 0 M0 0 C11.16 0, 22.33 0, 40 0 M40 0 C46.47 6.47, 52.94 12.94, 60 20 M40 0 C46.83 6.83, 53.67 13.67, 60 20 M60 20 C60 42.32, 60 64.63, 60 80 M60 20 C60 36.21, 60 52.43, 60 80 M60 80 C39.92 80, 19.83 80, 0 80 M60 80 C37.66 80, 15.32 80, 0 80 M0 80 C0 58.47, 0 36.94, 0 0 M0 80 C0 56.18, 0 32.36, 0 0 M0 0 C0 0, 0 0, 0 0 M0 0 C0 0, 0 0, 0 0" stroke="#c92a2a" stroke-width="1" fill="none"></path></g></g><g stroke-linecap="round"><g transform="translate(1040.945542279412 215.46191424661814) rotate(0 0 10)"><path d="M0 0 C0 5.4, 0 10.8, 0 20 M0 0 C0 4.9, 0 9.79, 0 20" stroke="#c92a2a" stroke-width="1" fill="none"></path></g></g><g stroke-linecap="round"><g transform="translate(1040.945542279412 235.46191424661814) rotate(0 10 0)"><path d="M0 0 C4.95 0, 9.9 0, 20 0 M0 0 C6.6 0, 13.19 0, 20 0" stroke="#c92a2a" stroke-width="1" fill="none"></path></g></g><g stroke-linecap="round" transform="translate(1000.9455422794119 215.32389341328488) rotate(0 30 39.999999999999986)"><path d="M0 0 C12.28 0, 24.57 0, 60 0 M0 0 C22.66 0, 45.31 0, 60 0 M60 0 C60 21.07, 60 42.15, 60 80 M60 0 C60 16.91, 60 33.82, 60 80 M60 80 C46.51 80, 33.02 80, 0 80 M60 80 C47.72 80, 35.44 80, 0 80 M0 80 C0 50.39, 0 20.77, 0 0 M0 80 C0 50.7, 0 21.4, 0 0" stroke="transparent" stroke-width="1" fill="none"></path></g><g transform="translate(1005.2658547794119 253.55566424661814) rotate(0 27 10)"><text x="0" y="14" font-family="Virgil, Segoe UI Emoji" font-size="16px" fill="#c92a2a" text-anchor="start" style="white-space: pre;" direction="ltr">*.class</text></g><g stroke-linecap="round"><g transform="translate(1073.065333946079 161.6337892466182) rotate(0 30 40.000000000000014)" fill-rule="evenodd"><path d="M0 0 L40 0 L60 20 L60 80 L0 80 L0 0" stroke="none" stroke-width="0" fill="#fff" fill-rule="evenodd"></path><path d="M0 0 C14.8 0, 29.6 0, 40 0 M0 0 C15.17 0, 30.34 0, 40 0 M40 0 C45.72 5.72, 51.44 11.44, 60 20 M40 0 C45.67 5.67, 51.33 11.33, 60 20 M60 20 C60 38.99, 60 57.99, 60 80 M60 20 C60 36.23, 60 52.45, 60 80 M60 80 C41.45 80, 22.9 80, 0 80 M60 80 C46.12 80, 32.24 80, 0 80 M0 80 C0 54.95, 0 29.9, 0 0 M0 80 C0 60.14, 0 40.28, 0 0 M0 0 C0 0, 0 0, 0 0 M0 0 C0 0, 0 0, 0 0" stroke="#c92a2a" stroke-width="1" fill="none"></path></g></g><g stroke-linecap="round"><g transform="translate(1113.065333946079 161.6337892466182) rotate(0 0 10)"><path d="M0 0 C0 5.15, 0 10.3, 0 20 M0 0 C0 4.33, 0 8.67, 0 20" stroke="#c92a2a" stroke-width="1" fill="none"></path></g></g><g stroke-linecap="round"><g transform="translate(1113.065333946079 181.6337892466182) rotate(0 10 0)"><path d="M0 0 C4.37 0, 8.74 0, 20 0 M0 0 C5.67 0, 11.35 0, 20 0" stroke="#c92a2a" stroke-width="1" fill="none"></path></g></g><g stroke-linecap="round" transform="translate(1073.065333946079 161.49576841328494) rotate(0 30 40)"><path d="M0 0 C23.82 0, 47.63 0, 60 0 M0 0 C14.29 0, 28.57 0, 60 0 M60 0 C60 21.47, 60 42.94, 60 80 M60 0 C60 20.37, 60 40.73, 60 80 M60 80 C38.04 80, 16.08 80, 0 80 M60 80 C43.68 80, 27.36 80, 0 80 M0 80 C0 51.69, 0 23.38, 0 0 M0 80 C0 56.7, 0 33.4, 0 0" stroke="transparent" stroke-width="1" fill="none"></path></g><g transform="translate(1077.385646446079 199.7275392466182) rotate(0 27 10)"><text x="0" y="14" font-family="Virgil, Segoe UI Emoji" font-size="16px" fill="#c92a2a" text-anchor="start" style="white-space: pre;" direction="ltr">*.class</text></g><g stroke-linecap="round"><g transform="translate(979.2684589460785 122.48014341328488) rotate(0 30 40.000000000000014)" fill-rule="evenodd"><path d="M0 0 L40 0 L60 20 L60 80 L0 80 L0 0" stroke="none" stroke-width="0" fill="#fff" fill-rule="evenodd"></path><path d="M0 0 C11.46 0, 22.91 0, 40 0 M0 0 C12.49 0, 24.97 0, 40 0 M40 0 C46.49 6.49, 52.98 12.98, 60 20 M40 0 C46.63 6.63, 53.26 13.26, 60 20 M60 20 C60 36.32, 60 52.64, 60 80 M60 20 C60 38.81, 60 57.62, 60 80 M60 80 C36.01 80, 12.02 80, 0 80 M60 80 C41.51 80, 23.03 80, 0 80 M0 80 C0 55.27, 0 30.54, 0 0 M0 80 C0 52.64, 0 25.28, 0 0 M0 0 C0 0, 0 0, 0 0 M0 0 C0 0, 0 0, 0 0" stroke="#c92a2a" stroke-width="1" fill="none"></path></g></g><g stroke-linecap="round"><g transform="translate(1019.2684589460785 122.48014341328488) rotate(0 0 10)"><path d="M0 0 C0 6.99, 0 13.97, 0 20 M0 0 C0 4.66, 0 9.32, 0 20" stroke="#c92a2a" stroke-width="1" fill="none"></path></g></g><g stroke-linecap="round"><g transform="translate(1019.2684589460785 142.48014341328488) rotate(0 10 0)"><path d="M0 0 C6.39 0, 12.78 0, 20 0 M0 0 C7.19 0, 14.38 0, 20 0" stroke="#c92a2a" stroke-width="1" fill="none"></path></g></g><g stroke-linecap="round" transform="translate(979.2684589460785 122.34212257995162) rotate(0 30 40)"><path d="M0 0 C21.4 0, 42.8 0, 60 0 M0 0 C23.28 0, 46.56 0, 60 0 M60 0 C60 23.55, 60 47.09, 60 80 M60 0 C60 16.76, 60 33.51, 60 80 M60 80 C44.76 80, 29.53 80, 0 80 M60 80 C43.04 80, 26.08 80, 0 80 M0 80 C0 57.05, 0 34.09, 0 0 M0 80 C0 57.45, 0 34.89, 0 0" stroke="transparent" stroke-width="1" fill="none"></path></g><g transform="translate(983.5887714460785 160.57389341328488) rotate(0 27 10)"><text x="0" y="14" font-family="Virgil, Segoe UI Emoji" font-size="16px" fill="#c92a2a" text-anchor="start" style="white-space: pre;" direction="ltr">*.class</text></g><g stroke-linecap="round" transform="translate(955.2493931466818 587.3961486125955) rotate(0 94.7265625 81.38445237103616)"><path d="M40.69 0 L148.76 0 L158.3 0.64 L166.56 2.54 L173.56 5.72 L179.28 10.17 L183.73 15.9 L186.91 22.89 L188.82 31.15 L189.45 40.69 L189.45 122.08 L188.82 131.61 L186.91 139.88 L183.73 146.87 L179.28 152.6 L173.56 157.05 L166.56 160.23 L158.3 162.13 L148.76 162.77 L40.69 162.77 L31.15 162.13 L22.89 160.23 L15.9 157.05 L10.17 152.6 L5.72 146.87 L2.54 139.88 L0.64 131.61 L0 122.08 L0 40.69 L0.64 31.15 L2.54 22.89 L5.72 15.9 L10.17 10.17 L15.9 5.72 L22.89 2.54 L31.15 0.64 L40.69 0" stroke="none" stroke-width="0" fill="#fff"></path><path d="M40.69 0 M40.69 0 C82.57 0, 124.45 0, 148.76 0 M40.69 0 C68.25 0, 95.8 0, 148.76 0 M148.76 0 C175.89 0, 189.45 13.56, 189.45 40.69 M148.76 0 C175.89 0, 189.45 13.56, 189.45 40.69 M189.45 40.69 C189.45 66.83, 189.45 92.97, 189.45 122.08 M189.45 40.69 C189.45 58.37, 189.45 76.05, 189.45 122.08 M189.45 122.08 C189.45 149.2, 175.89 162.77, 148.76 162.77 M189.45 122.08 C189.45 149.2, 175.89 162.77, 148.76 162.77 M148.76 162.77 C120.84 162.77, 92.92 162.77, 40.69 162.77 M148.76 162.77 C118.12 162.77, 87.48 162.77, 40.69 162.77 M40.69 162.77 C13.56 162.77, 0 149.2, 0 122.08 M40.69 162.77 C13.56 162.77, 0 149.2, 0 122.08 M0 122.08 C0 90.46, 0 58.85, 0 40.69 M0 122.08 C0 93.94, 0 65.81, 0 40.69 M0 40.69 C0 13.56, 13.56 0, 40.69 0 M0 40.69 C0 13.56, 13.56 0, 40.69 0" stroke="#000000" stroke-width="1" fill="none"></path></g><g transform="translate(990.2337681466818 607.2242736125955) rotate(0 58.5 10)"><text x="58.5" y="14" font-family="Virgil, Segoe UI Emoji" font-size="16px" fill="#000000" text-anchor="middle" style="white-space: pre;" direction="ltr">JDK "Artifact"</text></g><g stroke-linecap="round"><g transform="translate(1067.4898131127452 644.5582684132847) rotate(0 30 40)" fill-rule="evenodd"><path d="M0 0 L40 0 L60 20 L60 80 L0 80 L0 0" stroke="none" stroke-width="0" fill="#fff" fill-rule="evenodd"></path><path d="M0 0 C8.98 0, 17.97 0, 40 0 M0 0 C10.22 0, 20.44 0, 40 0 M40 0 C44.06 4.06, 48.11 8.11, 60 20 M40 0 C46.79 6.79, 53.58 13.58, 60 20 M60 20 C60 35.96, 60 51.92, 60 80 M60 20 C60 39.65, 60 59.29, 60 80 M60 80 C43.43 80, 26.85 80, 0 80 M60 80 C46.28 80, 32.55 80, 0 80 M0 80 C0 54, 0 28.01, 0 0 M0 80 C0 53.65, 0 27.3, 0 0 M0 0 C0 0, 0 0, 0 0 M0 0 C0 0, 0 0, 0 0" stroke="#c92a2a" stroke-width="1" fill="none"></path></g></g><g stroke-linecap="round"><g transform="translate(1107.4898131127452 644.5582684132847) rotate(0 0 10)"><path d="M0 0 C0 7, 0 14, 0 20 M0 0 C0 5.14, 0 10.27, 0 20" stroke="#c92a2a" stroke-width="1" fill="none"></path></g></g><g stroke-linecap="round"><g transform="translate(1107.4898131127452 664.5582684132847) rotate(0 10 0)"><path d="M0 0 C4.92 0, 9.83 0, 20 0 M0 0 C6.2 0, 12.39 0, 20 0" stroke="#c92a2a" stroke-width="1" fill="none"></path></g></g><g stroke-linecap="round" transform="translate(1067.4898131127452 644.4202475799515) rotate(0 30 40)"><path d="M0 0 C22.65 0, 45.29 0, 60 0 M0 0 C15.04 0, 30.07 0, 60 0 M60 0 C60 30.23, 60 60.46, 60 80 M60 0 C60 31.69, 60 63.37, 60 80 M60 80 C46.26 80, 32.52 80, 0 80 M60 80 C43.66 80, 27.32 80, 0 80 M0 80 C0 52.66, 0 25.33, 0 0 M0 80 C0 60.46, 0 40.92, 0 0" stroke="transparent" stroke-width="1" fill="none"></path></g><g transform="translate(1071.8101256127452 682.6520184132847) rotate(0 27 10)"><text x="0" y="14" font-family="Virgil, Segoe UI Emoji" font-size="16px" fill="#c92a2a" text-anchor="start" style="white-space: pre;" direction="ltr">*.class</text></g><g stroke-linecap="round"><g transform="translate(970.4455422794119 636.883789246618) rotate(0 30 40)" fill-rule="evenodd"><path d="M0 0 L40 0 L60 20 L60 80 L0 80 L0 0" stroke="none" stroke-width="0" fill="#fff" fill-rule="evenodd"></path><path d="M0 0 C8.05 0, 16.11 0, 40 0 M0 0 C8.68 0, 17.37 0, 40 0 M40 0 C46.86 6.86, 53.72 13.72, 60 20 M40 0 C45.57 5.57, 51.14 11.14, 60 20 M60 20 C60 33.03, 60 46.06, 60 80 M60 20 C60 34.64, 60 49.28, 60 80 M60 80 C43.31 80, 26.61 80, 0 80 M60 80 C38.66 80, 17.32 80, 0 80 M0 80 C0 51.22, 0 22.44, 0 0 M0 80 C0 49.42, 0 18.83, 0 0 M0 0 C0 0, 0 0, 0 0 M0 0 C0 0, 0 0, 0 0" stroke="#c92a2a" stroke-width="1" fill="none"></path></g></g><g stroke-linecap="round"><g transform="translate(1010.4455422794119 636.883789246618) rotate(0 0 10)"><path d="M0 0 C0 5.91, 0 11.81, 0 20 M0 0 C0 7.25, 0 14.5, 0 20" stroke="#c92a2a" stroke-width="1" fill="none"></path></g></g><g stroke-linecap="round"><g transform="translate(1010.4455422794119 656.883789246618) rotate(0 10 0)"><path d="M0 0 C4.98 0, 9.96 0, 20 0 M0 0 C7.04 0, 14.08 0, 20 0" stroke="#c92a2a" stroke-width="1" fill="none"></path></g></g><g stroke-linecap="round" transform="translate(970.4455422794119 636.745768413285) rotate(0 30 40)"><path d="M0 0 C22.65 0, 45.3 0, 60 0 M0 0 C18.86 0, 37.72 0, 60 0 M60 0 C60 18.63, 60 37.27, 60 80 M60 0 C60 21.21, 60 42.43, 60 80 M60 80 C45.28 80, 30.56 80, 0 80 M60 80 C37.18 80, 14.36 80, 0 80 M0 80 C0 59.32, 0 38.65, 0 0 M0 80 C0 50.65, 0 21.3, 0 0" stroke="transparent" stroke-width="1" fill="none"></path></g><g transform="translate(974.7658547794119 674.977539246618) rotate(0 27 10)"><text x="0" y="14" font-family="Virgil, Segoe UI Emoji" font-size="16px" fill="#c92a2a" text-anchor="start" style="white-space: pre;" direction="ltr">*.class</text></g><g stroke-linecap="round" transform="translate(10 231.3984374999999) rotate(0 111.609375 177.83984375)"><path d="M55.8 0 M55.8 0 C85.13 0.19, 109.1 -0.06, 167.41 0 M167.41 0 C206.25 -0.4, 223.06 19.74, 223.22 55.8 M223.22 55.8 C223.66 132.72, 226.32 212.63, 223.22 299.88 M223.22 299.88 C223.11 338.32, 204.57 355.06, 167.41 355.68 M167.41 355.68 C140.64 354.85, 110.74 354.68, 55.8 355.68 M55.8 355.68 C17.18 357.04, -0.26 338.57, 0 299.88 M0 299.88 C1.54 215.43, -0.12 130.3, 0 55.8 M0 55.8 C-0.52 19.79, 20.39 1.69, 55.8 0" stroke="#000000" stroke-width="1.5" fill="none" stroke-dasharray="8 9"></path></g><g transform="translate(34.25 189.2382812499999) rotate(0 94.5 12.5)"><text x="0" y="18" font-family="Virgil, Segoe UI Emoji" font-size="20px" fill="#000000" text-anchor="start" style="white-space: pre;" direction="ltr">Project Class Files</text></g><g stroke-linecap="round"><g transform="translate(92.7890625 272.7382812499999) rotate(0 30 40)" fill-rule="evenodd"><path d="M0 0 L40 0 L60 20 L60 80 L0 80 L0 0" stroke="none" stroke-width="0" fill="#fff" fill-rule="evenodd"></path><path d="M0 0 C14.04 0, 28.08 0, 40 0 M0 0 C14.3 0, 28.59 0, 40 0 M40 0 C45.83 5.83, 51.66 11.66, 60 20 M40 0 C47.48 7.48, 54.95 14.95, 60 20 M60 20 C60 38.9, 60 57.8, 60 80 M60 20 C60 34.73, 60 49.46, 60 80 M60 80 C39.73 80, 19.45 80, 0 80 M60 80 C42.35 80, 24.71 80, 0 80 M0 80 C0 57.74, 0 35.49, 0 0 M0 80 C0 61.33, 0 42.65, 0 0 M0 0 C0 0, 0 0, 0 0 M0 0 C0 0, 0 0, 0 0" stroke="#000000" stroke-width="1" fill="none"></path></g></g><g stroke-linecap="round"><g transform="translate(132.7890625 272.7382812499999) rotate(0 0 10)"><path d="M0 0 C0 7.42, 0 14.83, 0 20 M0 0 C0 7.19, 0 14.38, 0 20" stroke="#000000" stroke-width="1" fill="none"></path></g></g><g stroke-linecap="round"><g transform="translate(132.7890625 292.7382812499999) rotate(0 10 0)"><path d="M0 0 C4.1 0, 8.19 0, 20 0 M0 0 C4.09 0, 8.18 0, 20 0" stroke="#000000" stroke-width="1" fill="none"></path></g></g><g stroke-linecap="round" transform="translate(92.7890625 272.7382812499999) rotate(0 30 40)"><path d="M0 0 C18.96 0, 37.92 0, 60 0 M0 0 C13.92 0, 27.84 0, 60 0 M60 0 C60 27.8, 60 55.59, 60 80 M60 0 C60 22.51, 60 45.01, 60 80 M60 80 C47.87 80, 35.74 80, 0 80 M60 80 C39.37 80, 18.74 80, 0 80 M0 80 C0 49.96, 0 19.92, 0 0 M0 80 C0 56.85, 0 33.71, 0 0" stroke="transparent" stroke-width="1" fill="none"></path></g><g transform="translate(97.109375 310.8320312499999) rotate(0 27 10)"><text x="0" y="14" font-family="Virgil, Segoe UI Emoji" font-size="16px" fill="#000000" text-anchor="start" style="white-space: pre;" direction="ltr">*.class</text></g><g stroke-linecap="round"><g transform="translate(65.30859375 375.7734374999999) rotate(0 30 40)" fill-rule="evenodd"><path d="M0 0 L40 0 L60 20 L60 80 L0 80 L0 0" stroke="none" stroke-width="0" fill="#fff" fill-rule="evenodd"></path><path d="M0 0 C9.82 0, 19.64 0, 40 0 M0 0 C10.69 0, 21.38 0, 40 0 M40 0 C47.53 7.53, 55.06 15.06, 60 20 M40 0 C45.94 5.94, 51.88 11.88, 60 20 M60 20 C60 35.29, 60 50.58, 60 80 M60 20 C60 42.75, 60 65.5, 60 80 M60 80 C42.8 80, 25.6 80, 0 80 M60 80 C36.14 80, 12.28 80, 0 80 M0 80 C0 50.4, 0 20.81, 0 0 M0 80 C0 59.94, 0 39.88, 0 0 M0 0 C0 0, 0 0, 0 0 M0 0 C0 0, 0 0, 0 0" stroke="#000000" stroke-width="1" fill="none"></path></g></g><g stroke-linecap="round"><g transform="translate(105.30859375 375.7734374999999) rotate(0 0 10)"><path d="M0 0 C0 7.35, 0 14.71, 0 20 M0 0 C0 7.37, 0 14.74, 0 20" stroke="#000000" stroke-width="1" fill="none"></path></g></g><g stroke-linecap="round"><g transform="translate(105.30859375 395.7734374999999) rotate(0 10 0)"><path d="M0 0 C4.42 0, 8.85 0, 20 0 M0 0 C5.52 0, 11.05 0, 20 0" stroke="#000000" stroke-width="1" fill="none"></path></g></g><g stroke-linecap="round" transform="translate(65.30859375 375.7734374999999) rotate(0 30 40)"><path d="M0 0 C18.04 0, 36.08 0, 60 0 M0 0 C15 0, 30 0, 60 0 M60 0 C60 21.89, 60 43.79, 60 80 M60 0 C60 27.01, 60 54.02, 60 80 M60 80 C40.46 80, 20.92 80, 0 80 M60 80 C41.53 80, 23.07 80, 0 80 M0 80 C0 56.65, 0 33.3, 0 0 M0 80 C0 49.45, 0 18.89, 0 0" stroke="transparent" stroke-width="1" fill="none"></path></g><g transform="translate(69.62890625 413.8671874999999) rotate(0 27 10)"><text x="0" y="14" font-family="Virgil, Segoe UI Emoji" font-size="16px" fill="#000000" text-anchor="start" style="white-space: pre;" direction="ltr">*.class</text></g><g stroke-linecap="round"><g transform="translate(111.046875 472.2031249999999) rotate(0 30 40)" fill-rule="evenodd"><path d="M0 0 L40 0 L60 20 L60 80 L0 80 L0 0" stroke="none" stroke-width="0" fill="#fff" fill-rule="evenodd"></path><path d="M0 0 C9.74 0, 19.48 0, 40 0 M0 0 C13.76 0, 27.52 0, 40 0 M40 0 C46.98 6.98, 53.96 13.96, 60 20 M40 0 C44.95 4.95, 49.9 9.9, 60 20 M60 20 C60 39.31, 60 58.63, 60 80 M60 20 C60 41.73, 60 63.47, 60 80 M60 80 C36.71 80, 13.43 80, 0 80 M60 80 C43.85 80, 27.69 80, 0 80 M0 80 C0 52.96, 0 25.92, 0 0 M0 80 C0 49.72, 0 19.43, 0 0 M0 0 C0 0, 0 0, 0 0 M0 0 C0 0, 0 0, 0 0" stroke="#000000" stroke-width="1" fill="none"></path></g></g><g stroke-linecap="round"><g transform="translate(151.046875 472.2031249999999) rotate(0 0 10)"><path d="M0 0 C0 7.3, 0 14.6, 0 20 M0 0 C0 7.9, 0 15.81, 0 20" stroke="#000000" stroke-width="1" fill="none"></path></g></g><g stroke-linecap="round"><g transform="translate(151.046875 492.2031249999999) rotate(0 10 0)"><path d="M0 0 C7.95 0, 15.9 0, 20 0 M0 0 C7.84 0, 15.67 0, 20 0" stroke="#000000" stroke-width="1" fill="none"></path></g></g><g stroke-linecap="round" transform="translate(111.046875 472.2031249999999) rotate(0 30 40)"><path d="M0 0 C12.69 0, 25.39 0, 60 0 M0 0 C18.94 0, 37.87 0, 60 0 M60 0 C60 16.65, 60 33.29, 60 80 M60 0 C60 27.7, 60 55.41, 60 80 M60 80 C44.92 80, 29.85 80, 0 80 M60 80 C45.48 80, 30.96 80, 0 80 M0 80 C0 60.37, 0 40.74, 0 0 M0 80 C0 48.42, 0 16.83, 0 0" stroke="transparent" stroke-width="1" fill="none"></path></g><g transform="translate(115.3671875 510.2968749999999) rotate(0 27 10)"><text x="0" y="14" font-family="Virgil, Segoe UI Emoji" font-size="16px" fill="#000000" text-anchor="start" style="white-space: pre;" direction="ltr">*.class</text></g><g stroke-linecap="round" transform="translate(469.95236928526765 144.44501646145352) rotate(0 111.609375 264.5234375)"><path d="M55.8 0 M55.8 0 C86.8 -2.37, 115.73 -0.12, 167.41 0 M167.41 0 C203.43 0.11, 223.06 18.32, 223.22 55.8 M223.22 55.8 C224.82 206.85, 223.97 355.29, 223.22 473.24 M223.22 473.24 C221.34 511.45, 206.52 529.03, 167.41 529.05 M167.41 529.05 C129.41 531.41, 90.5 529.09, 55.8 529.05 M55.8 529.05 C20.41 530.25, -1.68 510.47, 0 473.24 M0 473.24 C-2.18 376.86, -1.46 280.29, 0 55.8 M0 55.8 C-1.92 18.06, 17.47 -1.02, 55.8 0" stroke="#000000" stroke-width="1.5" fill="none" stroke-dasharray="8 9"></path></g><g transform="translate(486.56174428526765 101.98017271145352) rotate(0 95 12.5)"><text x="95" y="18" font-family="Virgil, Segoe UI Emoji" font-size="20px" fill="#000000" text-anchor="middle" style="white-space: pre;" direction="ltr">Artifacts to Check</text></g><g stroke-linecap="round" transform="translate(486.83518178526765 156.95209653957852) rotate(0 94.7265625 121.18339538574216)"><path d="M47.36 0 L142.09 0 L153.19 0.74 L162.81 2.96 L170.95 6.66 L177.61 11.84 L180.39 14.99 L184.83 22.39 L187.79 31.27 L189.45 47.36 L189.27 200.74 L187.79 211.1 L182.79 223.87 L177.61 230.53 L174.47 233.3 L167.07 237.74 L158.19 240.7 L142.09 242.37 L47.36 242.37 L36.26 241.63 L26.64 239.41 L18.5 235.71 L11.84 230.53 L6.66 223.87 L4.63 219.98 L1.67 211.1 L0 195 L0 47.36 L1.67 31.27 L6.66 18.5 L9.07 14.99 L14.99 9.07 L22.39 4.63 L31.27 1.67 L47.36 0" stroke="none" stroke-width="0" fill="#fff"></path><path d="M47.36 0 M47.36 0 C66.71 0, 86.06 0, 142.09 0 M47.36 0 C66.64 0, 85.91 0, 142.09 0 M142.09 0 C173.67 0, 189.45 15.79, 189.45 47.36 M142.09 0 C173.67 0, 189.45 15.79, 189.45 47.36 M189.45 47.36 C189.45 91.59, 189.45 135.82, 189.45 195 M189.45 47.36 C189.45 80.23, 189.45 113.09, 189.45 195 M189.45 195 C189.45 226.58, 173.67 242.37, 142.09 242.37 M189.45 195 C189.45 226.58, 173.67 242.37, 142.09 242.37 M142.09 242.37 C117.44 242.37, 92.79 242.37, 47.36 242.37 M142.09 242.37 C106.66 242.37, 71.23 242.37, 47.36 242.37 M47.36 242.37 C15.79 242.37, 0 226.58, 0 195 M47.36 242.37 C15.79 242.37, 0 226.58, 0 195 M0 195 C0 154.39, 0 113.78, 0 47.36 M0 195 C0 157.17, 0 119.34, 0 47.36 M0 47.36 C0 15.79, 15.79 0, 47.36 0 M0 47.36 C0 15.79, 15.79 0, 47.36 0" stroke="#000000" stroke-width="1" fill="none"></path></g><g stroke-linecap="round"><g transform="translate(505.55393178526765 205.28486021145352) rotate(0 30 40.000000000000014)" fill-rule="evenodd"><path d="M0 0 L40 0 L60 20 L60 80 L0 80 L0 0" stroke="none" stroke-width="0" fill="#fff" fill-rule="evenodd"></path><path d="M0 0 C15.43 0, 30.86 0, 40 0 M0 0 C10.84 0, 21.68 0, 40 0 M40 0 C46.96 6.96, 53.93 13.93, 60 20 M40 0 C45.07 5.07, 50.14 10.14, 60 20 M60 20 C60 32.37, 60 44.74, 60 80 M60 20 C60 37.92, 60 55.83, 60 80 M60 80 C42.46 80, 24.91 80, 0 80 M60 80 C42.05 80, 24.1 80, 0 80 M0 80 C0 50.69, 0 21.37, 0 0 M0 80 C0 54.8, 0 29.59, 0 0 M0 0 C0 0, 0 0, 0 0 M0 0 C0 0, 0 0, 0 0" stroke="#364fc7" stroke-width="1" fill="none"></path></g></g><g stroke-linecap="round"><g transform="translate(545.5539317852677 205.28486021145352) rotate(0 0 10)"><path d="M0 0 C0 6.43, 0 12.86, 0 20 M0 0 C0 6.05, 0 12.1, 0 20" stroke="#364fc7" stroke-width="1" fill="none"></path></g></g><g stroke-linecap="round"><g transform="translate(545.5539317852677 225.28486021145352) rotate(0 10 0)"><path d="M0 0 C4.59 0, 9.18 0, 20 0 M0 0 C7.5 0, 15 0, 20 0" stroke="#364fc7" stroke-width="1" fill="none"></path></g></g><g stroke-linecap="round" transform="translate(505.55393178526765 205.28486021145352) rotate(0 30 40)"><path d="M0 0 C14.39 0, 28.78 0, 60 0 M0 0 C13.4 0, 26.79 0, 60 0 M60 0 C60 22.76, 60 45.53, 60 80 M60 0 C60 27.91, 60 55.82, 60 80 M60 80 C44.59 80, 29.19 80, 0 80 M60 80 C43.81 80, 27.62 80, 0 80 M0 80 C0 54.17, 0 28.33, 0 0 M0 80 C0 48.23, 0 16.46, 0 0" stroke="transparent" stroke-width="1" fill="none"></path></g><g transform="translate(509.87424428526765 243.37861021145352) rotate(0 27 10)"><text x="0" y="14" font-family="Virgil, Segoe UI Emoji" font-size="16px" fill="#364fc7" text-anchor="start" style="white-space: pre;" direction="ltr">*.class</text></g><g stroke-linecap="round"><g transform="translate(600.9445567852677 254.05365903957852) rotate(0 30 40)" fill-rule="evenodd"><path d="M0 0 L40 0 L60 20 L60 80 L0 80 L0 0" stroke="none" stroke-width="0" fill="#fff" fill-rule="evenodd"></path><path d="M0 0 C13.12 0, 26.24 0, 40 0 M0 0 C15.09 0, 30.17 0, 40 0 M40 0 C46.64 6.64, 53.29 13.29, 60 20 M40 0 C44.56 4.56, 49.11 9.11, 60 20 M60 20 C60 41.6, 60 63.2, 60 80 M60 20 C60 39.39, 60 58.78, 60 80 M60 80 C47.32 80, 34.63 80, 0 80 M60 80 C41.16 80, 22.33 80, 0 80 M0 80 C0 58.96, 0 37.91, 0 0 M0 80 C0 58.59, 0 37.18, 0 0 M0 0 C0 0, 0 0, 0 0 M0 0 C0 0, 0 0, 0 0" stroke="#000000" stroke-width="1" fill="none"></path></g></g><g stroke-linecap="round"><g transform="translate(640.9445567852677 254.05365903957852) rotate(0 0 10)"><path d="M0 0 C0 5.3, 0 10.59, 0 20 M0 0 C0 7.33, 0 14.67, 0 20" stroke="#000000" stroke-width="1" fill="none"></path></g></g><g stroke-linecap="round"><g transform="translate(640.9445567852677 274.0536590395785) rotate(0 10 0)"><path d="M0 0 C6.73 0, 13.45 0, 20 0 M0 0 C5.62 0, 11.23 0, 20 0" stroke="#000000" stroke-width="1" fill="none"></path></g></g><g stroke-linecap="round" transform="translate(600.9445567852677 254.05365903957852) rotate(0 30 40)"><path d="M0 0 C23.44 0, 46.89 0, 60 0 M0 0 C18.25 0, 36.5 0, 60 0 M60 0 C60 19.74, 60 39.49, 60 80 M60 0 C60 22.27, 60 44.55, 60 80 M60 80 C46.88 80, 33.76 80, 0 80 M60 80 C39.78 80, 19.57 80, 0 80 M0 80 C0 61.55, 0 43.09, 0 0 M0 80 C0 55.36, 0 30.71, 0 0" stroke="transparent" stroke-width="1" fill="none"></path></g><g transform="translate(605.2648692852677 292.1474090395785) rotate(0 27 10)"><text x="0" y="14" font-family="Virgil, Segoe UI Emoji" font-size="16px" fill="#000000" text-anchor="start" style="white-space: pre;" direction="ltr">*.class</text></g><g stroke-linecap="round"><g transform="translate(528.6984630352677 299.9560027895785) rotate(0 30 40)" fill-rule="evenodd"><path d="M0 0 L40 0 L60 20 L60 80 L0 80 L0 0" stroke="none" stroke-width="0" fill="#fff" fill-rule="evenodd"></path><path d="M0 0 C15.83 0, 31.66 0, 40 0 M0 0 C11.13 0, 22.26 0, 40 0 M40 0 C44.81 4.81, 49.62 9.62, 60 20 M40 0 C47.46 7.46, 54.91 14.91, 60 20 M60 20 C60 42.14, 60 64.28, 60 80 M60 20 C60 32.99, 60 45.97, 60 80 M60 80 C44.65 80, 29.29 80, 0 80 M60 80 C47.66 80, 35.32 80, 0 80 M0 80 C0 63.59, 0 47.18, 0 0 M0 80 C0 62.86, 0 45.73, 0 0 M0 0 C0 0, 0 0, 0 0 M0 0 C0 0, 0 0, 0 0" stroke="#364fc7" stroke-width="1" fill="none"></path></g></g><g stroke-linecap="round"><g transform="translate(568.6984630352677 299.9560027895785) rotate(0 0 10)"><path d="M0 0 C0 5.53, 0 11.05, 0 20 M0 0 C0 7.4, 0 14.81, 0 20" stroke="#364fc7" stroke-width="1" fill="none"></path></g></g><g stroke-linecap="round"><g transform="translate(568.6984630352677 319.9560027895785) rotate(0 10 0)"><path d="M0 0 C5.17 0, 10.35 0, 20 0 M0 0 C6.95 0, 13.89 0, 20 0" stroke="#364fc7" stroke-width="1" fill="none"></path></g></g><g stroke-linecap="round" transform="translate(528.6984630352677 299.9560027895785) rotate(0 30 40)"><path d="M0 0 C20.06 0, 40.13 0, 60 0 M0 0 C12.29 0, 24.59 0, 60 0 M60 0 C60 22.51, 60 45.02, 60 80 M60 0 C60 16.38, 60 32.76, 60 80 M60 80 C43.56 80, 27.12 80, 0 80 M60 80 C36.19 80, 12.39 80, 0 80 M0 80 C0 55.15, 0 30.3, 0 0 M0 80 C0 51.34, 0 22.68, 0 0" stroke="transparent" stroke-width="1" fill="none"></path></g><g transform="translate(533.0187755352677 338.0497527895785) rotate(0 27 10)"><text x="0" y="14" font-family="Virgil, Segoe UI Emoji" font-size="16px" fill="#364fc7" text-anchor="start" style="white-space: pre;" direction="ltr">*.class</text></g><g transform="translate(494.81955678526765 176.78022153957852) rotate(0 85.5 10)"><text x="85.5" y="14" font-family="Virgil, Segoe UI Emoji" font-size="16px" fill="#000000" text-anchor="middle" style="white-space: pre;" direction="ltr">Dependency "Artifact"</text></g><g stroke-linecap="round" transform="translate(486.83518178526765 416.78823240383633) rotate(0 94.7265625 121.18339538574219)"><path d="M47.36 0 L142.09 0 L153.19 0.74 L162.81 2.96 L170.95 6.66 L177.61 11.84 L180.39 14.99 L184.83 22.39 L187.79 31.27 L189.45 47.36 L189.27 200.74 L187.79 211.1 L182.79 223.87 L177.61 230.53 L174.47 233.3 L167.07 237.74 L158.19 240.7 L142.09 242.37 L47.36 242.37 L36.26 241.63 L26.64 239.41 L18.5 235.71 L11.84 230.53 L6.66 223.87 L4.63 219.98 L1.67 211.1 L0 195 L0 47.36 L1.67 31.27 L6.66 18.5 L9.07 14.99 L14.99 9.07 L22.39 4.63 L31.27 1.67 L47.36 0" stroke="none" stroke-width="0" fill="#fff"></path><path d="M47.36 0 M47.36 0 C66.32 0, 85.28 0, 142.09 0 M47.36 0 C67.7 0, 88.04 0, 142.09 0 M142.09 0 C173.67 0, 189.45 15.79, 189.45 47.36 M142.09 0 C173.67 0, 189.45 15.79, 189.45 47.36 M189.45 47.36 C189.45 97.37, 189.45 147.37, 189.45 195 M189.45 47.36 C189.45 91.5, 189.45 135.63, 189.45 195 M189.45 195 C189.45 226.58, 173.67 242.37, 142.09 242.37 M189.45 195 C189.45 226.58, 173.67 242.37, 142.09 242.37 M142.09 242.37 C106.8 242.37, 71.51 242.37, 47.36 242.37 M142.09 242.37 C106.62 242.37, 71.15 242.37, 47.36 242.37 M47.36 242.37 C15.79 242.37, 0 226.58, 0 195 M47.36 242.37 C15.79 242.37, 0 226.58, 0 195 M0 195 C0 147.74, 0 100.48, 0 47.36 M0 195 C0 155.14, 0 115.28, 0 47.36 M0 47.36 C0 15.79, 15.79 0, 47.36 0 M0 47.36 C0 15.79, 15.79 0, 47.36 0" stroke="#000000" stroke-width="1" fill="none"></path></g><g stroke-linecap="round"><g transform="translate(505.55393178526765 465.12099607571133) rotate(0 30 40)" fill-rule="evenodd"><path d="M0 0 L40 0 L60 20 L60 80 L0 80 L0 0" stroke="none" stroke-width="0" fill="#fff" fill-rule="evenodd"></path><path d="M0 0 C14.17 0, 28.34 0, 40 0 M0 0 C11.3 0, 22.6 0, 40 0 M40 0 C44.12 4.12, 48.24 8.24, 60 20 M40 0 C46.98 6.98, 53.97 13.97, 60 20 M60 20 C60 36.3, 60 52.59, 60 80 M60 20 C60 35.65, 60 51.29, 60 80 M60 80 C40.8 80, 21.61 80, 0 80 M60 80 C36.05 80, 12.1 80, 0 80 M0 80 C0 56.28, 0 32.56, 0 0 M0 80 C0 50.95, 0 21.89, 0 0 M0 0 C0 0, 0 0, 0 0 M0 0 C0 0, 0 0, 0 0" stroke="#364fc7" stroke-width="1" fill="none"></path></g></g><g stroke-linecap="round"><g transform="translate(545.5539317852677 465.12099607571133) rotate(0 0 10)"><path d="M0 0 C0 6.21, 0 12.42, 0 20 M0 0 C0 7.92, 0 15.85, 0 20" stroke="#364fc7" stroke-width="1" fill="none"></path></g></g><g stroke-linecap="round"><g transform="translate(545.5539317852677 485.12099607571133) rotate(0 10 0)"><path d="M0 0 C4.99 0, 9.97 0, 20 0 M0 0 C4.54 0, 9.09 0, 20 0" stroke="#364fc7" stroke-width="1" fill="none"></path></g></g><g stroke-linecap="round" transform="translate(505.55393178526765 465.12099607571133) rotate(0 30 40)"><path d="M0 0 C22.49 0, 44.99 0, 60 0 M0 0 C20.83 0, 41.67 0, 60 0 M60 0 C60 28.57, 60 57.13, 60 80 M60 0 C60 26.93, 60 53.86, 60 80 M60 80 C43.18 80, 26.36 80, 0 80 M60 80 C39.33 80, 18.66 80, 0 80 M0 80 C0 63.99, 0 47.98, 0 0 M0 80 C0 50.57, 0 21.14, 0 0" stroke="transparent" stroke-width="1" fill="none"></path></g><g transform="translate(509.87424428526765 503.21474607571133) rotate(0 27 10)"><text x="0" y="14" font-family="Virgil, Segoe UI Emoji" font-size="16px" fill="#364fc7" text-anchor="start" style="white-space: pre;" direction="ltr">*.class</text></g><g stroke-linecap="round"><g transform="translate(600.9445567852677 513.8897949038363) rotate(0 30 40)" fill-rule="evenodd"><path d="M0 0 L40 0 L60 20 L60 80 L0 80 L0 0" stroke="none" stroke-width="0" fill="#fff" fill-rule="evenodd"></path><path d="M0 0 C10.05 0, 20.1 0, 40 0 M0 0 C13.45 0, 26.9 0, 40 0 M40 0 C47.46 7.46, 54.91 14.91, 60 20 M40 0 C47.47 7.47, 54.94 14.94, 60 20 M60 20 C60 43.82, 60 67.64, 60 80 M60 20 C60 32.02, 60 44.04, 60 80 M60 80 C40.21 80, 20.43 80, 0 80 M60 80 C37.09 80, 14.18 80, 0 80 M0 80 C0 63.5, 0 46.99, 0 0 M0 80 C0 51.15, 0 22.3, 0 0 M0 0 C0 0, 0 0, 0 0 M0 0 C0 0, 0 0, 0 0" stroke="#000000" stroke-width="1" fill="none"></path></g></g><g stroke-linecap="round"><g transform="translate(640.9445567852677 513.8897949038363) rotate(0 0 10)"><path d="M0 0 C0 6.21, 0 12.42, 0 20 M0 0 C0 5.95, 0 11.9, 0 20" stroke="#000000" stroke-width="1" fill="none"></path></g></g><g stroke-linecap="round"><g transform="translate(640.9445567852677 533.8897949038363) rotate(0 10 0)"><path d="M0 0 C5.25 0, 10.5 0, 20 0 M0 0 C7.56 0, 15.12 0, 20 0" stroke="#000000" stroke-width="1" fill="none"></path></g></g><g stroke-linecap="round" transform="translate(600.9445567852677 513.8897949038363) rotate(0 30 40)"><path d="M0 0 C18.94 0, 37.88 0, 60 0 M0 0 C21.58 0, 43.16 0, 60 0 M60 0 C60 16.61, 60 33.23, 60 80 M60 0 C60 29.23, 60 58.46, 60 80 M60 80 C38.35 80, 16.71 80, 0 80 M60 80 C39.69 80, 19.39 80, 0 80 M0 80 C0 52.64, 0 25.27, 0 0 M0 80 C0 49.01, 0 18.02, 0 0" stroke="transparent" stroke-width="1" fill="none"></path></g><g transform="translate(605.2648692852677 551.9835449038361) rotate(0 27 10)"><text x="0" y="14" font-family="Virgil, Segoe UI Emoji" font-size="16px" fill="#000000" text-anchor="start" style="white-space: pre;" direction="ltr">*.class</text></g><g stroke-linecap="round"><g transform="translate(528.5174161310804 559.7543099919292) rotate(0 30 40)" fill-rule="evenodd"><path d="M0 0 L40 0 L60 20 L60 80 L0 80 L0 0" stroke="none" stroke-width="0" fill="#fff" fill-rule="evenodd"></path><path d="M0 0 C11.57 0, 23.14 0, 40 0 M0 0 C10.44 0, 20.88 0, 40 0 M40 0 C44.8 4.8, 49.6 9.6, 60 20 M40 0 C47.44 7.44, 54.89 14.89, 60 20 M60 20 C60 42.95, 60 65.9, 60 80 M60 20 C60 42.31, 60 64.63, 60 80 M60 80 C47.12 80, 34.24 80, 0 80 M60 80 C46.86 80, 33.73 80, 0 80 M0 80 C0 56.08, 0 32.17, 0 0 M0 80 C0 63.87, 0 47.74, 0 0 M0 0 C0 0, 0 0, 0 0 M0 0 C0 0, 0 0, 0 0" stroke="#364fc7" stroke-width="1" fill="none"></path></g></g><g stroke-linecap="round"><g transform="translate(568.5174161310804 559.7543099919292) rotate(0 0 10)"><path d="M0 0 C0 5.65, 0 11.3, 0 20 M0 0 C0 4.12, 0 8.24, 0 20" stroke="#364fc7" stroke-width="1" fill="none"></path></g></g><g stroke-linecap="round"><g transform="translate(568.5174161310804 579.754309991929) rotate(0 10 0)"><path d="M0 0 C7.92 0, 15.85 0, 20 0 M0 0 C5.17 0, 10.33 0, 20 0" stroke="#364fc7" stroke-width="1" fill="none"></path></g></g><g stroke-linecap="round" transform="translate(528.5174161310804 559.7543099919292) rotate(0 30 40)"><path d="M0 0 C13.63 0, 27.26 0, 60 0 M0 0 C21.74 0, 43.48 0, 60 0 M60 0 C60 31.05, 60 62.1, 60 80 M60 0 C60 17.99, 60 35.98, 60 80 M60 80 C39.88 80, 19.76 80, 0 80 M60 80 C42.83 80, 25.65 80, 0 80 M0 80 C0 51.91, 0 23.82, 0 0 M0 80 C0 55.16, 0 30.33, 0 0" stroke="transparent" stroke-width="1" fill="none"></path></g><g transform="translate(532.8377286310804 597.8480599919287) rotate(0 27 10)"><text x="0" y="14" font-family="Virgil, Segoe UI Emoji" font-size="16px" fill="#364fc7" text-anchor="start" style="white-space: pre;" direction="ltr">*.class</text></g><g transform="translate(494.81955678526765 436.61635740383633) rotate(0 85.5 10)"><text x="85.5" y="14" font-family="Virgil, Segoe UI Emoji" font-size="16px" fill="#000000" text-anchor="middle" style="white-space: pre;" direction="ltr">Dependency "Artifact"</text></g><g stroke-linecap="round"><g transform="translate(161.42317708333326 326.24545209835736) rotate(0 176.8847276409789 129.69909305818413)"><path d="M-0.04 -0.68 C31.68 9.74, 132.14 18.92, 190.98 62.14 C249.82 105.37, 325.62 225.91, 353 258.65 M-1.52 1.57 C30.55 12.21, 133.92 20.38, 193.39 63.47 C252.86 106.55, 328.8 227.36, 355.29 260.08" stroke="#364fc7" stroke-width="1" fill="none"></path></g><g transform="translate(161.42317708333326 326.24545209835736) rotate(0 176.8847276409789 129.69909305818413)"><path d="M353.34 259.53 L341.59 252.66 L351.58 246.65 L353.99 261.29" stroke="none" stroke-width="0" fill="#364fc7" fill-rule="evenodd"></path><path d="M354.44 259.36 C350.19 256.09, 346.33 256.3, 342.39 251.63 M354.75 260.12 C351.11 257.81, 345.12 255.22, 342.77 253.52 M342.58 251.55 C343.76 250.7, 346.56 248.94, 351.53 244.76 M342.34 253.3 C344.67 251.38, 346.75 249.88, 351.97 245.21 M352.8 245.57 C352.01 250.61, 354.61 255.81, 355.95 259.9 M352.19 245.88 C353.59 248.19, 353.51 251.56, 355.61 259.38 M355.29 260.08 C355.29 260.08, 355.29 260.08, 355.29 260.08 M355.29 260.08 C355.29 260.08, 355.29 260.08, 355.29 260.08" stroke="#364fc7" stroke-width="1" fill="none"></path></g></g><g stroke-linecap="round"><g transform="translate(176.5625 508.5748791816906) rotate(0 158.4543682861106 -125.27097009399493)"><path d="M0.62 -1.19 C18.63 -21.18, 56.52 -78.7, 108.93 -120.4 C161.34 -162.09, 280.55 -229.56, 315.08 -251.34 M-0.51 0.8 C17.24 -19, 54.84 -77.39, 107.83 -119.23 C160.82 -161.07, 282.67 -228.4, 317.42 -250.21" stroke="#364fc7" stroke-width="1" fill="none"></path></g><g transform="translate(176.5625 508.5748791816906) rotate(0 158.4543682861106 -125.27097009399493)"><path d="M317.55 -250.38 L309.05 -239.38 L303.38 -248.35 L317.02 -251.02" stroke="none" stroke-width="0" fill="#364fc7" fill-rule="evenodd"></path><path d="M315.94 -250.57 C313.34 -246.87, 310.63 -240.95, 308.8 -238.08 M318.09 -250.56 C314.96 -247.46, 312.73 -244.03, 308.69 -238.12 M308.25 -236.83 C307.83 -241.77, 305.03 -243.47, 303.19 -249.82 M309.36 -238.02 C307.69 -239.64, 305.79 -242.4, 302.24 -249.05 M301.22 -248.27 C308.55 -248.46, 313.1 -249.17, 318.89 -251.42 M302.46 -248.67 C305.96 -249.35, 309.67 -248.89, 316.68 -250.26 M317.42 -250.21 C317.42 -250.21, 317.42 -250.21, 317.42 -250.21 M317.42 -250.21 C317.42 -250.21, 317.42 -250.21, 317.42 -250.21" stroke="#364fc7" stroke-width="1" fill="none"></path></g></g><g stroke-linecap="round"><g transform="translate(176.20789155140164 526.5280041816907) rotate(0 169.0071109809902 27.934793704329735)"><path d="M-1.1 0.69 C31.41 -3.21, 139.11 -36.11, 195.81 -22.74 C252.51 -9.37, 315.27 63.56, 339.12 80.93 M0.52 0.01 C32.78 -3.77, 138.34 -35, 194.64 -21.39 C250.94 -7.78, 314.25 64.4, 338.3 81.68" stroke="#364fc7" stroke-width="1" fill="none"></path></g><g transform="translate(176.20789155140164 526.5280041816907) rotate(0 169.0071109809902 27.934793704329735)"><path d="M340.25 82.04 L325.65 78.83 L333.8 65.94 L338.52 82.08" stroke="none" stroke-width="0" fill="#364fc7" fill-rule="evenodd"></path><path d="M339.16 81.15 C332.66 79.91, 326.6 78.09, 323.27 78.17 M338.8 82.13 C333.16 79.94, 329 78.41, 323.95 76.96 M324.44 77.04 C327.4 74.9, 328.88 71.06, 331.67 66.8 M324.32 77 C326.71 73.95, 329.79 70.97, 332.82 68.52 M331.41 67.87 C332.97 72.31, 333.87 72.62, 339.57 82.72 M332.01 68.03 C335 72.76, 336.03 76.95, 337.89 81.46 M338.3 81.68 C338.3 81.68, 338.3 81.68, 338.3 81.68 M338.3 81.68 C338.3 81.68, 338.3 81.68, 338.3 81.68" stroke="#364fc7" stroke-width="1" fill="none"></path></g></g><g stroke-linecap="round"><g transform="translate(135.55598958333326 423.68946251502405) rotate(0 182.21073331490817 -100.81751763488353)"><path d="M-0.79 -1.19 C30.04 -24.15, 123.68 -104, 184.27 -137.54 C244.86 -171.09, 332.99 -191.78, 362.77 -202.44 M1 0.8 C31.72 -22.05, 122.57 -102.79, 183.27 -136.47 C243.97 -170.15, 335.29 -190.08, 365.21 -201.28" stroke="#364fc7" stroke-width="1" fill="none"></path></g><g transform="translate(135.55598958333326 423.68946251502405) rotate(0 182.21073331490817 -100.81751763488353)"><path d="M367.05 -202.54 L352.7 -192.92 L351.36 -204.86 L364.2 -201.72" stroke="none" stroke-width="0" fill="#364fc7" fill-rule="evenodd"></path><path d="M363.72 -201.4 C361.42 -199.99, 359.43 -197.37, 354.89 -190.12 M364.51 -200.62 C362.15 -197.07, 356.97 -194.34, 354.17 -190.66 M354.85 -191.46 C352.67 -195.71, 351.97 -197.79, 349.27 -202.53 M353.61 -191.61 C353.01 -195.37, 351.65 -199.61, 350.17 -203.89 M351.08 -203.74 C354.15 -202.95, 356.41 -201.21, 366.54 -202.27 M350.14 -203.05 C354.76 -202.84, 358.83 -201.82, 364.88 -201.34 M365.21 -201.28 C365.21 -201.28, 365.21 -201.28, 365.21 -201.28 M365.21 -201.28 C365.21 -201.28, 365.21 -201.28, 365.21 -201.28" stroke="#364fc7" stroke-width="1" fill="none"></path></g></g><g transform="translate(244.84979321308856 562.2603051656778) rotate(0 108.5 20)"><text x="108.5" y="14" font-family="Virgil, Segoe UI Emoji" font-size="16px" fill="#364fc7" text-anchor="middle" style="white-space: pre;" direction="ltr">Method or class references</text><text x="108.5" y="34" font-family="Virgil, Segoe UI Emoji" font-size="16px" fill="#364fc7" text-anchor="middle" style="white-space: pre;" direction="ltr">"Reachability"</text></g><g stroke-linecap="round"><g transform="translate(569.1631210319722 223.08967514355265) rotate(0 201.75805807094923 -30.596502938993574)"><path d="M0.78 -0.65 C44.53 -1.65, 194.99 4.36, 262.15 -5.69 C329.32 -15.74, 380.08 -51.52, 403.79 -60.95 M-0.27 1.62 C43.44 0.29, 194.49 3.49, 261.69 -7.25 C328.88 -17.98, 379.04 -53.79, 402.9 -62.81" stroke="#c92a2a" stroke-width="1" fill="none"></path></g><g transform="translate(569.1631210319722 223.08967514355265) rotate(0 201.75805807094923 -30.596502938993574)"><path d="M401.69 -61.72 L392.08 -51.72 L386.4 -62.69 L403.82 -62.44" stroke="none" stroke-width="0" fill="#c92a2a" fill-rule="evenodd"></path><path d="M402.08 -61.67 C401.75 -59.9, 399 -56.03, 392.99 -50.98 M402.61 -62.23 C399.51 -59.6, 397.15 -56.03, 393.33 -50.42 M392.3 -50.94 C392.37 -52.73, 391.28 -56.98, 387.84 -62.07 M392.95 -50.77 C391.54 -55.05, 389.5 -58.4, 387.37 -62.46 M387 -63.21 C394.43 -63.12, 397.58 -62.35, 402.04 -64.16 M388.27 -62.87 C392.2 -62.07, 396.99 -61.95, 403.18 -62.77 M402.9 -62.81 C402.9 -62.81, 402.9 -62.81, 402.9 -62.81 M402.9 -62.81 C402.9 -62.81, 402.9 -62.81, 402.9 -62.81" stroke="#c92a2a" stroke-width="1" fill="none"></path></g></g><g stroke-linecap="round"><g transform="translate(568.2168453882091 245.54420154824112) rotate(0 212.90663285597748 8.098692973519277)"><path d="M-0.71 -0.28 C52.19 2.37, 247.06 14.08, 318.27 16.12 C389.47 18.15, 408.54 12.76, 426.52 11.93 M1.12 -1.47 C53.87 1.32, 247.12 15.43, 317.86 17.37 C388.6 19.31, 407.54 11, 425.56 10.18" stroke="#c92a2a" stroke-width="1" fill="none"></path></g><g transform="translate(568.2168453882091 245.54420154824112) rotate(0 212.90663285597748 8.098692973519277)"><path d="M424.23 10.56 L412.34 18.46 L409.7 7.36 L425.07 10.56" stroke="none" stroke-width="0" fill="#c92a2a" fill-rule="evenodd"></path><path d="M425.22 11.47 C420.15 12.66, 417.47 15.17, 413.35 17.48 M424.91 10.17 C421.61 12.65, 418.83 14.08, 413.5 18.63 M414.08 19.22 C413.06 15.53, 411.04 12.88, 410.58 5.48 M412.41 17.72 C411.9 13.54, 412.09 10.26, 411.65 5.59 M410.51 5.98 C415.32 6.59, 416.09 7.31, 426.85 9.8 M411.68 5.27 C415.04 6.84, 418.75 7.41, 425.58 10.81 M425.56 10.18 C425.56 10.18, 425.56 10.18, 425.56 10.18 M425.56 10.18 C425.56 10.18, 425.56 10.18, 425.56 10.18" stroke="#c92a2a" stroke-width="1" fill="none"></path></g></g><g stroke-linecap="round"><g transform="translate(569.0606706170706 257.5786958403195) rotate(0 202.32486776820053 74.90514796864458)"><path d="M1.15 0.64 C36.11 6.69, 142.93 11.32, 210.13 36.01 C277.34 60.71, 372.2 129.96, 404.36 148.82 M0.29 -0.06 C35.14 5.7, 142.4 9.53, 209.67 34.52 C276.94 59.51, 371.69 130.59, 403.91 149.87" stroke="#c92a2a" stroke-width="1" fill="none"></path></g><g transform="translate(569.0606706170706 257.5786958403195) rotate(0 202.32486776820053 74.90514796864458)"><path d="M402.07 148.65 L387.28 149.29 L395.96 138.48 L405.34 151.51" stroke="none" stroke-width="0" fill="#c92a2a" fill-rule="evenodd"></path><path d="M404.72 151.03 C400.5 150.04, 393.46 147.76, 388.91 149.1 M404.37 149.17 C399.95 148.63, 396.05 148.2, 388.37 147.39 M389.86 147.11 C390.62 146.2, 392.82 142, 396.57 138.33 M388.48 147.92 C390.85 145.79, 391.61 143.1, 395.68 137.24 M396.57 137.74 C396.96 140.58, 398.64 144.21, 404.84 149.19 M396.16 136.79 C398.17 141.03, 401.16 145.63, 403.58 150.53 M403.91 149.87 C403.91 149.87, 403.91 149.87, 403.91 149.87 M403.91 149.87 C403.91 149.87, 403.91 149.87, 403.91 149.87" stroke="#c92a2a" stroke-width="1" fill="none"></path></g></g><g stroke-linecap="round"><g transform="translate(594.411934000577 352.9675082169728) rotate(0 183.9387571217012 159.24202956572032)"><path d="M0.17 0.4 C26.23 13.92, 112.2 43.23, 156.06 80.42 C199.93 117.61, 227.88 183.89, 263.37 223.55 C298.86 263.21, 351.36 302.39, 369.01 318.4 M-1.2 -0.44 C25.24 12.8, 114.28 41.09, 158.21 78.63 C202.14 116.17, 227.21 184.75, 262.36 224.8 C297.5 264.85, 351.51 303.05, 369.08 318.92" stroke="#c92a2a" stroke-width="1" fill="none"></path></g><g transform="translate(594.411934000577 352.9675082169728) rotate(0 183.9387571217012 159.24202956572032)"><path d="M369.34 317.51 L352.89 316.66 L362.06 305.08 L367.44 318.83" stroke="none" stroke-width="0" fill="#c92a2a" fill-rule="evenodd"></path><path d="M369.57 317.57 C365.87 317.33, 360.92 316.48, 353.15 315.13 M368.57 318.89 C364.73 317.36, 359.59 317.07, 354.54 314.85 M355.05 314.34 C358.04 311.43, 360.83 309.57, 362.84 304.67 M354 315.61 C356.41 312.78, 358.62 309.59, 362.2 305.2 M362.61 304.17 C366.02 312.03, 367.67 316.23, 367.79 318.33 M362.55 306.08 C364.17 309.48, 366.13 313.53, 368.42 319.52 M369.08 318.92 C369.08 318.92, 369.08 318.92, 369.08 318.92 M369.08 318.92 C369.08 318.92, 369.08 318.92, 369.08 318.92" stroke="#c92a2a" stroke-width="1" fill="none"></path></g></g><g stroke-linecap="round"><g transform="translate(577.1254756672436 516.9965459896168) rotate(0 242.59501733193986 -24.644916187694065)"><path d="M-1.01 -1.06 C51.23 -2.04, 231.25 3.29, 312.46 -4.75 C393.66 -12.8, 457.02 -41.72, 486.2 -49.35 M0.66 0.99 C52.81 0.73, 230.62 5.49, 311.37 -3.23 C392.13 -11.95, 455.73 -43.59, 485.2 -51.34" stroke="#c92a2a" stroke-width="1" fill="none"></path></g><g transform="translate(577.1254756672436 516.9965459896168) rotate(0 242.59501733193986 -24.644916187694065)"><path d="M485.44 -52.97 L474.6 -42.39 L469.98 -52.65 L485.9 -50.03" stroke="none" stroke-width="0" fill="#c92a2a" fill-rule="evenodd"></path><path d="M483.87 -51.66 C482.93 -49.74, 481.46 -45.82, 473.75 -42.04 M484.8 -50.7 C480.84 -48.02, 476.56 -44.06, 475.01 -40.38 M474.72 -41.95 C473.33 -43.82, 471.92 -47.89, 470.11 -52.86 M474.47 -41 C472.65 -45.07, 471.66 -50.31, 469.98 -52.7 M469.47 -53.32 C474.84 -51.83, 481.83 -50.37, 483.88 -51.11 M469.97 -53.26 C475.11 -52.68, 480.25 -52.44, 485.2 -51.92 M485.2 -51.34 C485.2 -51.34, 485.2 -51.34, 485.2 -51.34 M485.2 -51.34 C485.2 -51.34, 485.2 -51.34, 485.2 -51.34" stroke="#c92a2a" stroke-width="1" fill="none"></path></g></g><g stroke-linecap="round"><g transform="translate(574.2912868369933 498.7209918509102) rotate(0 198.7321972566831 -39.18895547920374)"><path d="M-1.01 -0.13 C45.52 -3.72, 212.25 -7.82, 278.83 -20.84 C345.42 -33.86, 378.37 -68.71, 398.48 -78.25 M0.66 -1.24 C47.1 -4.71, 211.96 -6.85, 278.08 -19.48 C344.2 -32.11, 377.06 -67.44, 397.37 -77.03" stroke="#c92a2a" stroke-width="1" fill="none"></path></g><g transform="translate(574.2912868369933 498.7209918509102) rotate(0 198.7321972566831 -39.18895547920374)"><path d="M396.21 -77.49 L390.58 -66.18 L381.63 -73.36 L396.32 -76.67" stroke="none" stroke-width="0" fill="#c92a2a" fill-rule="evenodd"></path><path d="M397.21 -76.57 C394.85 -74.48, 392.9 -69.78, 389.32 -63.57 M396.83 -77.64 C394.77 -71.57, 391.38 -67.1, 388.87 -63.96 M390.41 -63.44 C387.58 -67.78, 384.49 -71.64, 381.56 -74.53 M389.31 -64.74 C387.14 -68.19, 384.32 -71.78, 382.07 -75.21 M382.97 -74.87 C385.38 -75.06, 389.48 -77.25, 397.31 -76.71 M382.22 -74.39 C384.98 -75.77, 388.63 -75.94, 396.72 -77.73 M397.37 -77.03 C397.37 -77.03, 397.37 -77.03, 397.37 -77.03 M397.37 -77.03 C397.37 -77.03, 397.37 -77.03, 397.37 -77.03" stroke="#c92a2a" stroke-width="1" fill="none"></path></g></g><g stroke-linecap="round"><g transform="translate(536.9465162192373 331.8649276576026) rotate(0 263.9987445578329 -63.37406778152567)"><path d="M-0.34 0.09 C49.12 -16.23, 209.01 -76.73, 297.12 -97.6 C385.23 -118.46, 489.66 -120.43, 528.34 -125.1 M1.68 -0.9 C51.02 -17.65, 208.89 -78.62, 296.52 -99.61 C384.14 -120.6, 488.56 -122.14, 527.43 -126.84" stroke="#c92a2a" stroke-width="1" fill="none"></path></g><g transform="translate(536.9465162192373 331.8649276576026) rotate(0 263.9987445578329 -63.37406778152567)"><path d="M527.03 -126.71 L512.72 -119.68 L513.89 -133.94 L528.28 -128.04" stroke="none" stroke-width="0" fill="#c92a2a" fill-rule="evenodd"></path><path d="M527.54 -126.03 C523.43 -124.82, 520.34 -121.36, 515.18 -120.69 M527.72 -126.67 C523.99 -124.54, 520.51 -123.16, 513.9 -119.21 M515.39 -118.42 C513.21 -124.82, 514.13 -128.55, 513.62 -132.4 M514.62 -119.66 C514.58 -124.61, 513.35 -128.37, 512.83 -131.49 M514.54 -131.6 C516.46 -132.05, 520.82 -130.8, 526.66 -125.41 M513.27 -132.29 C519.12 -129.53, 523.55 -128.73, 526.7 -127.08 M527.43 -126.84 C527.43 -126.84, 527.43 -126.84, 527.43 -126.84 M527.43 -126.84 C527.43 -126.84, 527.43 -126.84, 527.43 -126.84" stroke="#c92a2a" stroke-width="1" fill="none"></path></g></g><g stroke-linecap="round"><g transform="translate(571.5551631672436 263.31413877651534) rotate(0 244.8450409445834 209.59020777699672)"><path d="M-0.2 0.56 C39.87 20.2, 158.32 48.86, 240.26 118.47 C322.2 188.09, 449.58 368.35, 491.45 418.26 M-1.76 -0.19 C38.67 19.55, 160.23 49.74, 242.37 119.67 C324.5 189.6, 449.41 369.54, 491.04 419.37" stroke="#c92a2a" stroke-width="1" fill="none"></path></g><g transform="translate(571.5551631672436 263.31413877651534) rotate(0 244.8450409445834 209.59020777699672)"><path d="M493 417.8 L479.65 410.64 L485.97 405.9 L491.76 419.86" stroke="none" stroke-width="0" fill="#c92a2a" fill-rule="evenodd"></path><path d="M491.74 417.94 C486.37 418.22, 482.88 416.3, 476.84 411.09 M490.59 419.71 C486.06 417.45, 481.48 413.99, 478.44 412.11 M478.15 413.32 C480.89 410.54, 482.63 408.11, 486.96 405.4 M477.96 412.09 C480.51 410.72, 481.77 408.69, 487.87 404.83 M488.52 405.78 C488.9 409.74, 491.18 415.71, 492.2 420.42 M488.38 404.89 C488.83 408.68, 490.11 412.63, 490.42 419.63 M491.04 419.37 C491.04 419.37, 491.04 419.37, 491.04 419.37 M491.04 419.37 C491.04 419.37, 491.04 419.37, 491.04 419.37" stroke="#c92a2a" stroke-width="1" fill="none"></path></g></g><g transform="translate(759.6773131127452 714.1559246632847) rotate(0 10 10)"><text x="10" y="14" font-family="Virgil, Segoe UI Emoji" font-size="16px" fill="transparent" text-anchor="middle" style="white-space: pre;" direction="ltr">as</text></g><g transform="translate(721.6825214460785 701.5179038299516) rotate(0 93.5 10)"><text x="93.5" y="14" font-family="Virgil, Segoe UI Emoji" font-size="16px" fill="#c92a2a" text-anchor="middle" style="white-space: pre;" direction="ltr">Check ABI Compatibility</text></g><g stroke-linecap="round"><g transform="translate(501.29506250785516 282.69064129709426) rotate(0 2.8065981537340576 35.073687881424874)"><path d="M-0.56 0.63 C-2 8.9, -12.35 39.25, -9.64 50.65 C-6.93 62.06, 11.4 66.06, 15.7 69.07 M1.34 -0.09 C0.38 8.35, -9.63 37.1, -7.3 48.82 C-4.97 60.54, 11.9 66.8, 15.34 70.24" stroke="#364fc7" stroke-width="1" fill="none"></path></g><g transform="translate(501.29506250785516 282.69064129709426) rotate(0 2.8065981537340576 35.073687881424874)"><path d="M14.74 69.4 L2.3 67.79 L6.73 58.54 L16.48 69.44" stroke="none" stroke-width="0" fill="#364fc7" fill-rule="evenodd"></path><path d="M16.12 69.36 C12.78 70.66, 8.53 70.72, -0.35 67.44 M15.95 69.7 C10.06 68.85, 3.8 68.59, 0.04 68.73 M0.64 68.76 C3.62 63.8, 6.14 60.28, 8.56 57 M0.92 68.23 C2.07 65.82, 4.25 62.39, 7.52 58 M6.82 56.89 C8.19 58.91, 10.12 64.5, 15.19 69.43 M7.36 56.95 C10.86 62.41, 13.73 67.68, 15.61 70.15 M15.34 70.24 C15.34 70.24, 15.34 70.24, 15.34 70.24 M15.34 70.24 C15.34 70.24, 15.34 70.24, 15.34 70.24" stroke="#364fc7" stroke-width="1" fill="none"></path></g></g><g stroke-linecap="round"><g transform="translate(527.3808000149847 384.04174408178005) rotate(0 -23.629949352725703 50.42736721662587)"><path d="M-0.17 1.12 C-7.78 7.47, -42.31 20.5, -46.56 37.01 C-50.81 53.52, -28.94 89.73, -25.65 100.19 M-1.71 0.67 C-8.9 7.25, -40.33 21.87, -44.4 38.15 C-48.46 54.43, -29.01 88.45, -26.1 98.34" stroke="#364fc7" stroke-width="1" fill="none"></path></g><g transform="translate(527.3808000149847 384.04174408178005) rotate(0 -23.629949352725703 50.42736721662587)"><path d="M-27.22 97.41 L-37.43 87.83 L-26.07 82.16 L-27.7 100.12" stroke="none" stroke-width="0" fill="#364fc7" fill-rule="evenodd"></path><path d="M-24.69 97.03 C-29.5 96.78, -29.92 92.97, -36.54 86.87 M-26.27 98.99 C-30.14 94.66, -33.7 90.41, -36.52 87.74 M-35.94 88.55 C-32.28 86.79, -28.49 83.72, -26.41 83.87 M-37.82 88.45 C-34.94 87.77, -31.09 85.94, -25.23 82.83 M-25.84 84.07 C-25.6 88.69, -26.03 92.52, -25.81 98.14 M-25.37 83.86 C-25.92 87.16, -25.92 89.84, -26.01 99.09 M-26.1 98.34 C-26.1 98.34, -26.1 98.34, -26.1 98.34 M-26.1 98.34 C-26.1 98.34, -26.1 98.34, -26.1 98.34" stroke="#364fc7" stroke-width="1" fill="none"></path></g></g></svg>
